<svg width="641" height="578" viewBox="0 0 641 578" fill="none" xmlns="http://www.w3.org/2000/svg">
<rect width="641" height="578" fill="white"/>
<g id="undraw_well_done_i2wr 1">
<g id="cartoon-two">
<path id="Vector" d="M566.492 508.204C569.355 505.807 565.486 496.472 557.852 487.353C550.217 478.235 541.707 472.786 538.845 475.182C535.982 477.579 539.851 486.914 547.485 496.033C555.12 505.151 563.63 510.6 566.492 508.204Z" fill="#2F2E41"/>
<path id="Vector_2" d="M506.861 527.282C530.647 527.282 549.929 508 549.929 484.215C549.929 460.43 530.647 441.148 506.861 441.148C483.076 441.148 463.794 460.43 463.794 484.215C463.794 508 483.076 527.282 506.861 527.282Z" fill="#2F2E41"/>
<path id="Vector_3" d="M525.09 518.015H512.006V541.456H525.09V518.015Z" fill="#2F2E41"/>
<path id="Vector_4" d="M498.923 518.015H485.839V541.456H498.923V518.015Z" fill="#2F2E41"/>
<path id="Vector_5" d="M514.187 545.818C520.209 545.818 525.09 543.987 525.09 541.729C525.09 539.471 520.209 537.64 514.187 537.64C508.165 537.64 503.284 539.471 503.284 541.729C503.284 543.987 508.165 545.818 514.187 545.818Z" fill="#2F2E41"/>
<path id="Vector_6" d="M488.02 545.272C494.041 545.272 498.923 543.442 498.923 541.184C498.923 538.926 494.041 537.095 488.02 537.095C481.998 537.095 477.116 538.926 477.116 541.184C477.116 543.442 481.998 545.272 488.02 545.272Z" fill="#2F2E41"/>
<g id="cartoon2-cap">
<path id="Vector_7" d="M493.339 430.078C497.184 414.591 514.159 405.477 531.253 409.722C548.347 413.967 559.088 429.962 555.242 445.449C551.396 460.936 538.638 460.986 521.544 456.742C504.45 452.497 489.493 445.565 493.339 430.078Z" fill="#FF6584"/>
</g>
<path id="Vector_8" d="M477.809 473.459C479.409 470.086 471.995 463.22 461.25 458.124C450.505 453.027 440.497 451.63 438.897 455.004C437.297 458.377 444.711 465.243 455.456 470.339C466.202 475.436 476.21 476.833 477.809 473.459Z" fill="#2F2E41"/>
<path id="Vector_9" d="M500.423 489.486C508.353 489.486 514.781 483.058 514.781 475.127C514.781 467.197 508.353 460.769 500.423 460.769C492.493 460.769 486.064 467.197 486.064 475.127C486.064 483.058 492.493 489.486 500.423 489.486Z" fill="white"/>
<g id="cartoon2-eye">
<path id="Vector_10" d="M494.521 474.767C497.165 474.767 499.308 472.624 499.308 469.981C499.308 467.337 497.165 465.194 494.521 465.194C491.878 465.194 489.735 467.337 489.735 469.981C489.735 472.624 491.878 474.767 494.521 474.767Z" fill="#3F3D56"/>
</g>
<g id="cartoon2-mouth">
<path id="Vector_11" d="M509.43 505.043C509.655 506.28 509.635 507.549 509.369 508.777C509.104 510.006 508.599 511.171 507.884 512.204C507.169 513.238 506.257 514.121 505.2 514.802C504.144 515.483 502.964 515.95 501.727 516.175C500.49 516.4 499.221 516.379 497.992 516.114C496.764 515.849 495.599 515.344 494.565 514.629C493.532 513.914 492.649 513.002 491.968 511.945C491.286 510.889 490.82 509.708 490.595 508.472L490.591 508.453C489.65 503.251 493.672 501.41 498.874 500.468C504.076 499.527 508.488 499.841 509.43 505.043Z" fill="white"/>
</g>
<path id="Vector_12" d="M466.948 194.367L457.952 194.658C454.426 177.894 453.868 160.642 456.302 143.685L465.297 143.393C461.975 161.144 462.525 178.135 466.948 194.367Z" fill="white"/>
<path id="Vector_13" d="M525.295 250.508L498.309 251.382L498.503 257.379L525.489 256.505L525.295 250.508Z" fill="#3F3D56"/>
<path id="Vector_14" d="M446.913 480.135L444.196 478.863L511.008 252.291L513.725 253.564L446.913 480.135Z" fill="#3F3D56"/>
<g id="cartoon2-balloon">
<path id="Vector_15" d="M574.212 169.883C572.782 125.723 542.537 90.8666 506.657 92.0282C426.804 94.3943 424.854 240.829 501.95 251.348L500.317 264.324L524.128 263.553L521.66 250.71C552.674 243.855 575.508 209.919 574.212 169.883Z" fill="#FF6584"/>
<path id="Vector_16" d="M629.51 207.225C645.826 166.166 632.008 122.133 598.647 108.876C524.488 79.1708 464.247 212.655 530.736 253.074L524.06 264.319L546.199 273.117L549.062 260.357C580.234 266.451 614.717 244.451 629.51 207.225Z" fill="#6C63FF"/>
</g>
<path id="Vector_17" d="M521.388 186.857L513.025 183.534C516.483 166.756 522.858 150.714 531.858 136.139L540.222 139.462C530.091 154.411 523.813 170.209 521.388 186.857Z" fill="white"/>
<path id="Vector_18" d="M527.384 251.652L525.169 257.228L550.26 267.198L552.476 261.623L527.384 251.652Z" fill="#3F3D56"/>
<path id="Vector_19" d="M446.385 474.171L443.778 472.687L537.056 259.819L539.663 261.302L446.385 474.171Z" fill="#3F3D56"/>
</g>
<g id="cartoon-one">
<path id="Vector_20" d="M162.081 459.221C166.327 448.112 166.942 438.026 163.454 436.693C159.967 435.36 153.698 443.285 149.452 454.394C145.206 465.503 144.591 475.589 148.078 476.922C151.566 478.255 157.835 470.33 162.081 459.221Z" fill="#2F2E41"/>
<path id="Vector_21" d="M115.959 532.397C139.745 532.397 159.026 513.115 159.026 489.329C159.026 465.544 139.745 446.262 115.959 446.262C92.1737 446.262 72.8918 465.544 72.8918 489.329C72.8918 513.115 92.1737 532.397 115.959 532.397Z" fill="#2F2E41"/>
<path id="Vector_22" d="M109.417 523.129H96.3335V546.571H109.417V523.129Z" fill="#2F2E41"/>
<path id="Vector_23" d="M135.585 523.129H122.501V546.571H135.585V523.129Z" fill="#2F2E41"/>
<path id="Vector_24" d="M107.237 550.932C113.258 550.932 118.14 549.101 118.14 546.843C118.14 544.585 113.258 542.755 107.237 542.755C101.215 542.755 96.3335 544.585 96.3335 546.843C96.3335 549.101 101.215 550.932 107.237 550.932Z" fill="#2F2E41"/>
<path id="Vector_25" d="M133.404 550.387C139.426 550.387 144.307 548.556 144.307 546.298C144.307 544.04 139.426 542.209 133.404 542.209C127.383 542.209 122.501 544.04 122.501 546.298C122.501 548.556 127.383 550.387 133.404 550.387Z" fill="#2F2E41"/>
<path id="Vector_26" d="M117.049 493.145C125.179 493.145 131.769 486.555 131.769 478.426C131.769 470.297 125.179 463.707 117.049 463.707C108.92 463.707 102.33 470.297 102.33 478.426C102.33 486.555 108.92 493.145 117.049 493.145Z" fill="white"/>
<g id="cartoon1-eye">
<path id="Vector_27" d="M117.049 483.333C119.759 483.333 121.956 481.136 121.956 478.426C121.956 475.716 119.759 473.52 117.049 473.52C114.34 473.52 112.143 475.716 112.143 478.426C112.143 481.136 114.34 483.333 117.049 483.333Z" fill="#3F3D56"/>
</g>
<g id="cartoon1-cap">
<path id="Vector_28" d="M74.1824 449.278C70.7049 433.704 81.8211 417.967 99.011 414.129C116.201 410.291 132.955 419.804 136.433 435.378C139.91 450.952 128.518 456.695 111.328 460.534C94.1379 464.372 77.6599 464.852 74.1824 449.278Z" fill="#FF6584"/>
</g>
<path id="Vector_29" d="M86.9072 478.574C88.5072 475.2 81.0933 468.334 70.3478 463.238C59.6024 458.142 49.5946 456.745 47.9947 460.118C46.3948 463.491 53.8087 470.357 64.5541 475.454C75.2995 480.55 85.3073 481.947 86.9072 478.574Z" fill="#2F2E41"/>
<g id="cartoon1-mouth">
<path id="Vector_30" d="M94.8046 504.866C94.8046 509.081 105.658 517.405 117.701 517.405C129.745 517.405 141.036 505.538 141.036 501.323C141.036 497.108 129.744 502.14 117.701 502.14C105.658 502.14 94.8046 500.651 94.8046 504.866Z" fill="white"/>
</g>
<path id="cartoon1-balloon" d="M131.792 177.851C114.139 137.348 73.1509 116.141 40.2423 130.484C-33.0795 162.202 19.2414 298.984 94.7643 280.258L98.0443 292.918L119.883 283.399L112.843 272.379C139.125 254.545 147.797 214.571 131.792 177.851Z" fill="#6C63FF"/>
<path id="Vector_31" d="M41.1775 240.252L32.9271 243.848C23.4535 229.575 16.5567 213.751 12.5503 197.096L20.8008 193.5C24.2755 211.221 31.0677 226.805 41.1775 240.252Z" fill="white"/>
<path id="Vector_32" d="M116.145 270.848L91.3941 281.635L93.7914 287.135L118.543 276.348L116.145 270.848Z" fill="#3F3D56"/>
<path id="Vector_33" d="M173.411 485.829C173.025 485.925 172.617 485.863 172.276 485.658C171.936 485.452 171.69 485.12 171.595 484.734L106.387 278.118L109.299 277.396L174.506 484.012C174.554 484.203 174.563 484.402 174.534 484.596C174.504 484.791 174.437 484.978 174.335 485.147C174.234 485.316 174.1 485.463 173.941 485.58C173.783 485.697 173.603 485.781 173.411 485.829Z" fill="#3F3D56"/>
</g>
<g id="cartoon-three">
<path id="Vector_34" d="M316.678 517.42C340.464 517.42 359.746 498.138 359.746 474.353C359.746 450.568 340.464 431.286 316.678 431.286C292.893 431.286 273.611 450.568 273.611 474.353C273.611 498.138 292.893 517.42 316.678 517.42Z" fill="#2F2E41"/>
<path id="Vector_35" d="M310.136 508.153H297.053V531.594H310.136V508.153Z" fill="#2F2E41"/>
<path id="Vector_36" d="M336.304 508.153H323.22V531.594H336.304V508.153Z" fill="#2F2E41"/>
<path id="Vector_37" d="M307.956 535.956C313.977 535.956 318.859 534.125 318.859 531.867C318.859 529.609 313.977 527.778 307.956 527.778C301.934 527.778 297.053 529.609 297.053 531.867C297.053 534.125 301.934 535.956 307.956 535.956Z" fill="#2F2E41"/>
<path id="Vector_38" d="M334.123 535.41C340.145 535.41 345.027 533.58 345.027 531.322C345.027 529.064 340.145 527.233 334.123 527.233C328.102 527.233 323.22 529.064 323.22 531.322C323.22 533.58 328.102 535.41 334.123 535.41Z" fill="#2F2E41"/>
<g id="cartoon3-cap">
<path id="Vector_39" d="M274.902 434.302C271.424 418.728 282.54 402.991 299.73 399.153C316.92 395.314 333.674 404.828 337.152 420.402C340.629 435.976 329.237 441.719 312.047 445.558C294.857 449.396 278.379 449.875 274.902 434.302Z" fill="#6C63FF"/>
</g>
<path id="Vector_40" d="M363.088 455.533C372.415 446.199 377.6 436.259 374.67 433.331C371.74 430.403 361.803 435.596 352.476 444.93C343.149 454.264 337.964 464.205 340.894 467.133C343.824 470.061 353.761 464.868 363.088 455.533Z" fill="#2F2E41"/>
<path id="Vector_41" d="M281.965 470.133C284.895 467.205 279.709 457.264 270.382 447.93C261.055 438.596 251.119 433.403 248.189 436.331C245.258 439.259 250.444 449.199 259.771 458.533C269.098 467.868 279.034 473.061 281.965 470.133Z" fill="#2F2E41"/>
<path id="Vector_42" d="M314.866 482.969C322.996 482.969 329.586 476.379 329.586 468.25C329.586 460.121 322.996 453.531 314.866 453.531C306.737 453.531 300.147 460.121 300.147 468.25C300.147 476.379 306.737 482.969 314.866 482.969Z" fill="white"/>
<g id="cartoon3-eye">
<path id="Vector_43" d="M314.866 473.156C317.576 473.156 319.773 470.959 319.773 468.25C319.773 465.54 317.576 463.343 314.866 463.343C312.157 463.343 309.96 465.54 309.96 468.25C309.96 470.959 312.157 473.156 314.866 473.156Z" fill="#3F3D56"/>
</g>
<g id="cartoon3-mouth">
<path id="Vector_44" d="M326.551 495.472C327.006 497.97 326.449 500.546 325.005 502.634C323.56 504.721 321.345 506.15 318.848 506.604C316.35 507.059 313.774 506.503 311.686 505.058C309.599 503.614 308.17 501.399 307.715 498.901L307.712 498.883C306.77 493.68 310.793 491.84 315.995 490.898C321.197 489.956 325.609 490.27 326.551 495.472Z" fill="white"/>
</g>
</g>
</g>
</svg>
